<?xml version="1.0" encoding="UTF-8"?>
<svg width="600" height="400" viewBox="0 0 600 400" fill="none" xmlns="http://www.w3.org/2000/svg">
  <rect width="600" height="400" fill="white" fill-opacity="0.1"/>
  <path d="M300 80C380 80 450 150 450 230C450 310 380 380 300 380C220 380 150 310 150 230C150 150 220 80 300 80Z" fill="#E3F2FD"/>
  <path d="M300 120C360 120 410 170 410 230C410 290 360 340 300 340C240 340 190 290 190 230C190 170 240 120 300 120Z" stroke="#2196F3" stroke-width="8"/>
  <path d="M300 160L330 220H270L300 160Z" fill="#1976D2"/>
  <path d="M270 220H330L300 280L270 220Z" fill="#1976D2"/>
  <circle cx="300" cy="230" r="20" fill="#1976D2"/>
</svg> 