<?xml version="1.0" encoding="UTF-8"?>
<svg width="500" height="400" viewBox="0 0 500 400" fill="none" xmlns="http://www.w3.org/2000/svg">
  <circle cx="250" cy="200" r="150" fill="#E3F2FD"/>
  <path d="M250 100C180 100 120 160 120 230C120 300 180 360 250 360C320 360 380 300 380 230C380 160 320 100 250 100Z" stroke="#2196F3" stroke-width="4"/>
  <path d="M250 150C300 150 340 190 340 240C340 290 300 330 250 330C200 330 160 290 160 240C160 190 200 150 250 150Z" stroke="#1976D2" stroke-width="4"/>
  <path d="M250 180L280 240H220L250 180Z" fill="#1976D2"/>
  <path d="M220 240H280L250 300L220 240Z" fill="#1976D2"/>
  <circle cx="250" cy="240" r="20" fill="#1976D2"/>
  <path d="M100 200C100 144.772 144.772 100 200 100H300C355.228 100 400 144.772 400 200V300C400 355.228 355.228 400 300 400H200C144.772 400 100 355.228 100 300V200Z" stroke="#BBDEFB" stroke-width="2"/>
</svg> 